<svg width="52" height="52" viewBox="0 0 52 52" fill="none" xmlns="http://www.w3.org/2000/svg">
<path d="M17.6259 0.630943C16.5306 0.474926 15.1242 0.594062 14.0486 0.941003C13.3497 1.15404 12.3804 1.65626 11.7767 2.09636C11.1017 2.59242 10.1451 3.64831 9.66132 4.42424L9.25506 5.06891L0.564504 34.4077L0.554113 35.1696C0.535337 36.0833 0.762564 37.4899 1.06039 38.2741C1.62117 39.7409 2.73259 41.1659 4.01262 42.0422C5.07104 42.7616 4.49099 42.5735 19.7525 47.0942C35.0215 51.6171 34.4326 51.4589 35.7068 51.4223C37.265 51.3868 38.9692 50.8039 40.2328 49.8775C40.91 49.374 41.8741 48.3203 42.3538 47.5513L42.7526 46.9044L51.4431 17.5656L51.4535 16.8037C51.4717 15.8919 51.2451 14.4834 50.9491 13.6997C50.6812 12.9995 50.1431 12.0527 49.673 11.4935C49.1727 10.8785 48.2889 10.1115 47.5656 9.65979L46.931 9.26486L32.4952 4.98066C24.5595 2.62188 17.8623 0.662427 17.6283 0.629631L17.6259 0.630943ZM35.0048 14.2202C37.1223 15.2452 38.4257 16.4267 39.0687 17.9037C39.3427 18.5287 39.5416 19.6671 39.5282 20.4667C39.5115 20.9894 39.4508 21.2697 39.0997 22.4826C38.7297 23.759 38.659 23.943 38.3634 24.3992C37.4918 25.7644 36.2151 26.6322 34.4377 27.0716L33.8272 27.2195L34.1653 27.4495C34.6785 27.8085 35.4849 28.583 35.8621 29.0925C36.8032 30.3656 37.2262 32.0371 37.0619 33.8329C36.974 34.7261 36.4385 36.5338 36.0393 37.2577C34.4684 40.106 31.481 41.5242 27.7207 41.1835C26.28 41.0551 25.9246 40.966 18.6271 38.8044L11.494 36.6915L19.5618 9.45508L26.935 11.6696C33.5354 13.647 34.375 13.912 35.0048 14.2202ZM23.2918 19.1069L22.3414 22.3156L25.7519 23.2954C28.9536 24.2052 29.1949 24.2686 29.7498 24.2808C31.485 24.3199 32.4545 23.6047 32.9546 21.9164C33.3381 20.6217 33.1287 19.6486 32.2812 18.8619C31.531 18.1648 30.6057 17.7913 26.8696 16.6765L24.2423 15.8983L23.2918 19.1069ZM20.0321 30.1115L18.9253 33.8482L22.6514 34.9214C26.8368 36.1308 26.9813 36.1573 28.1577 35.964C29.5124 35.7383 30.3186 34.9503 30.775 33.4094C31.3624 31.4264 30.8999 30.0942 29.2454 29.0075C28.78 28.6931 28.681 28.6638 24.9566 27.5301L21.1384 26.3768L20.0316 30.1134L20.0321 30.1115Z" fill="#133B6D"/>
</svg>
