<svg width="35" height="25" viewBox="0 0 35 25" fill="none" xmlns="http://www.w3.org/2000/svg">
<path d="M7.16905 11.4357C6.95936 11.8239 6.68604 12.1825 6.35797 12.5C6.68604 12.8175 6.95936 13.1761 7.16905 13.5643C7.90323 14.9055 7.90323 16.4786 7.90323 18C7.90323 21.2421 8.1635 22 10.7258 22C11.175 22 11.6057 22.158 11.9233 22.4393C12.2409 22.7206 12.4194 23.1022 12.4194 23.5C12.4194 23.8978 12.2409 24.2794 11.9233 24.5607C11.6057 24.842 11.175 25 10.7258 25C8.02396 25 6.18177 24.1372 5.2503 22.4357C4.51613 21.0945 4.51613 19.5214 4.51613 18C4.51613 14.7579 4.25585 14 1.69355 14C1.24439 14 0.813631 13.842 0.496029 13.5607C0.178427 13.2794 0 12.8978 0 12.5C0 12.1022 0.178427 11.7206 0.496029 11.4393C0.813631 11.158 1.24439 11 1.69355 11C4.25585 11 4.51613 10.2421 4.51613 7C4.51613 5.47864 4.51613 3.90552 5.2503 2.56433C6.18177 0.862792 8.02396 0 10.7258 0C11.175 0 11.6057 0.158035 11.9233 0.43934C12.2409 0.720644 12.4194 1.10218 12.4194 1.5C12.4194 1.89782 12.2409 2.27936 11.9233 2.56066C11.6057 2.84196 11.175 3 10.7258 3C8.1635 3 7.90323 3.75794 7.90323 7C7.90323 8.52136 7.90323 10.0945 7.16905 11.4357ZM33.3064 11C30.7441 11 30.4839 10.2421 30.4839 7C30.4839 5.47864 30.4839 3.90552 29.7497 2.56433C28.8182 0.862792 26.976 0 24.2742 0C23.825 0 23.3943 0.158035 23.0767 0.43934C22.7591 0.720644 22.5806 1.10218 22.5806 1.5C22.5806 1.89782 22.7591 2.27936 23.0767 2.56066C23.3943 2.84196 23.825 3 24.2742 3C26.8365 3 27.0968 3.75794 27.0968 7C27.0968 8.52136 27.0968 10.0945 27.8309 11.4357C28.0406 11.8239 28.314 12.1825 28.642 12.5C28.314 12.8175 28.0406 13.1761 27.8309 13.5643C27.0968 14.9055 27.0968 16.4786 27.0968 18C27.0968 21.2421 26.8365 22 24.2742 22C23.825 22 23.3943 22.158 23.0767 22.4393C22.7591 22.7206 22.5806 23.1022 22.5806 23.5C22.5806 23.8978 22.7591 24.2794 23.0767 24.5607C23.3943 24.842 23.825 25 24.2742 25C26.976 25 28.8182 24.1372 29.7497 22.4357C30.4839 21.0945 30.4839 19.5214 30.4839 18C30.4839 14.7579 30.7441 14 33.3064 14C33.7556 14 34.1864 13.842 34.504 13.5607C34.8216 13.2794 35 12.8978 35 12.5C35 12.1022 34.8216 11.7206 34.504 11.4393C34.1864 11.158 33.7556 11 33.3064 11Z" fill="#133B6D"/>
</svg>
