<svg width="31" height="30" viewBox="0 0 31 30" fill="none" xmlns="http://www.w3.org/2000/svg">
<path d="M4.49878 0.921677L0.0024606 25.1816L26 30L30.4963 5.74004L4.49878 0.921677ZM22.2509 15.5776C23.0461 15.725 23.6977 15.9934 24.2055 16.3827C24.7133 16.7721 25.101 17.3261 25.3685 18.0448L23.2606 18.835C23.1202 18.4547 22.9418 18.1658 22.7253 17.9682C22.5088 17.7707 22.2273 17.6398 21.8806 17.5755C21.534 17.5113 21.2369 17.5497 20.9893 17.6908C20.7417 17.8318 20.5914 18.0451 20.5385 18.3305C20.4786 18.654 20.5414 18.9411 20.7269 19.192C20.899 19.401 21.2494 19.6726 21.778 20.0068L22.3474 20.3485C23.3842 21.013 24.0931 21.6266 24.4739 22.1892C24.939 22.8658 25.0887 23.6513 24.9229 24.5455C24.7396 25.535 24.2076 26.2433 23.3269 26.6705C22.4906 27.0863 21.471 27.1826 20.2679 26.9597C19.1873 26.7594 18.3001 26.3686 17.6063 25.7874C16.9703 25.2365 16.5238 24.5732 16.2668 23.7974L18.4506 23.1098C18.6549 23.6003 18.9093 23.9919 19.2136 24.2845C19.5756 24.6074 20.042 24.8218 20.6129 24.9276C21.1023 25.0183 21.5193 24.9873 21.8639 24.8347C22.2086 24.6821 22.4126 24.4345 22.4761 24.0921C22.5396 23.7496 22.4396 23.4358 22.176 23.1508C21.98 22.957 21.5804 22.6664 20.9772 22.2791L20.4131 21.9089C19.5049 21.3469 18.8706 20.7866 18.5102 20.2277C18.0823 19.5777 17.9495 18.815 18.1117 17.9398C18.2739 17.0645 18.7342 16.4019 19.4925 15.952C20.2508 15.5021 21.1702 15.3773 22.2509 15.5776ZM14.1499 14.2238L16.5968 14.6773L15.1527 22.469C14.9411 23.6107 14.434 24.4122 13.6314 24.8735C12.897 25.3082 11.9691 25.4216 10.8476 25.2137C9.93009 25.0437 9.18209 24.6984 8.60366 24.1779C8.12013 23.7143 7.77343 23.1384 7.56356 22.45L9.7885 21.711C9.93873 22.1522 10.0915 22.4659 10.2468 22.6521C10.4492 22.9258 10.7441 23.0985 11.1315 23.1703C11.5597 23.2497 11.8933 23.2131 12.1325 23.0606C12.4195 22.8776 12.6124 22.5198 12.7111 21.987L14.1499 14.2238Z" fill="#133B6D"/>
</svg>
