<svg width="26" height="23" viewBox="0 0 26 23" fill="none" xmlns="http://www.w3.org/2000/svg">
<path d="M0.511405 11.4315C0.16489 15.1365 2.35057 18.4635 5.36183 20.4859C5.43293 20.5364 5.50555 20.5815 5.5773 20.6271C5.62292 20.661 5.66919 20.69 5.71818 20.7197C5.74279 20.7368 5.77273 20.7532 5.79946 20.768C5.8477 20.8004 5.89669 20.8301 5.94481 20.8604L6.21244 21.0146C6.26268 21.0424 6.30982 21.0709 6.36267 21.0973C6.45769 21.1516 6.55919 21.201 6.65596 21.2542C6.69829 21.2762 6.73789 21.2975 6.78233 21.3172C6.94191 21.4023 7.10503 21.4806 7.27127 21.5518C7.39185 21.6065 7.51095 21.6587 7.63527 21.7078C7.67748 21.7276 7.72318 21.7454 7.76675 21.7655L8.09069 21.8913C8.12983 21.9037 8.17155 21.9226 8.21255 21.9361C8.35595 21.9906 8.5031 22.0395 8.65123 22.0901L8.65853 22.0928C8.84792 22.1697 9.04438 22.2279 9.2451 22.2665C9.3556 22.2994 9.46561 22.3313 9.57898 22.3591L9.71465 22.3938C9.86297 22.4305 10.0117 22.4659 10.1627 22.4953C10.1645 22.4943 10.1663 22.4956 10.1686 22.4955L10.2428 22.5109C10.3754 22.5382 10.5089 22.5649 10.6406 22.5846L10.8011 22.6144C10.9086 22.6317 11.0181 22.6445 11.1259 22.6604L11.2969 22.6844C11.4123 22.6995 11.5324 22.7108 11.6486 22.7232C11.6913 22.7277 11.7341 22.7322 11.7768 22.7345L11.8142 22.7398L12.149 22.7629L12.2929 22.7735C12.468 22.7824 12.6393 22.7888 12.8097 22.7935C12.8553 22.7907 12.9045 22.7905 12.9503 22.7921C13.0748 22.7929 13.2033 22.7926 13.3267 22.7894C13.3957 22.7895 13.464 22.7842 13.5332 22.7806C13.6191 22.7802 13.7072 22.7775 13.7984 22.7742C13.8181 22.7698 13.8382 22.7673 13.8585 22.7666C13.8946 22.7634 13.9294 22.7621 13.9652 22.7603C14.0991 22.7534 14.2365 22.7423 14.3777 22.7279C14.4035 22.7248 14.4311 22.7207 14.4606 22.7201C14.617 22.704 14.7727 22.6848 14.9314 22.6628C14.966 22.6548 15.0057 22.6518 15.0425 22.6459C15.1851 22.6238 15.3317 22.6006 15.4751 22.5758L15.5275 22.5669C15.6871 22.5363 15.8432 22.5055 16.0017 22.4709C16.038 22.4619 16.0766 22.455 16.1146 22.445C16.2775 22.408 16.4396 22.3817 16.5946 22.3308C26.4576 18.9014 25.092 10.4261 25.092 10.4261C24.5175 14.5036 21.0683 17.4443 16.9272 18.6866C16.7737 18.732 16.6133 18.7653 16.4531 18.8031C16.2597 18.8476 16.0652 18.8879 15.87 18.9239L15.8042 18.9336C15.6632 18.9605 15.5241 18.9806 15.3832 19.0017C15.3445 19.0068 15.306 19.0132 15.2678 19.0211C15.1094 19.0417 14.9558 19.0586 14.8003 19.0741C14.7684 19.0807 14.7389 19.0813 14.706 19.0861C14.5731 19.0974 14.4402 19.1075 14.3072 19.1164C14.268 19.1203 14.2287 19.1226 14.1893 19.1234C14.0859 19.1314 13.9789 19.1333 13.8752 19.1368C13.8053 19.1415 13.7353 19.1443 13.6652 19.1453C13.5364 19.1492 13.4061 19.1483 13.2772 19.15C13.2358 19.1458 13.192 19.1476 13.1472 19.1477C12.9754 19.1442 12.8037 19.1379 12.6322 19.1289C12.585 19.1272 12.538 19.1239 12.4911 19.1191C12.3663 19.1141 12.2418 19.1053 12.1176 19.0926C12.0758 19.0898 12.0356 19.0838 11.992 19.0797C11.8714 19.069 11.751 19.0559 11.6308 19.0405C11.5775 19.0316 11.5226 19.0259 11.4667 19.0185C11.3556 19.0009 11.2462 18.9881 11.1336 18.9679L10.9841 18.9433C10.8405 18.92 10.6973 18.8938 10.5547 18.8646C10.5392 18.8602 10.5233 18.8573 10.5072 18.8558L10.0496 18.7517L9.91629 18.7191C9.80356 18.6864 9.69105 18.6581 9.57756 18.6281L9.44303 18.5893C9.29932 18.5499 9.15662 18.5069 9.01503 18.4604L8.9941 18.4538C8.84472 18.4051 8.6956 18.3527 8.54687 18.299C8.50859 18.2862 8.46922 18.2694 8.42947 18.2539L8.0955 18.1246C7.92218 18.0525 7.74983 17.978 7.57848 17.9013C3.97227 16.2753 1.06633 12.8571 0.915636 8.79114L0.511405 11.4315ZM4.98489 5.94541C4.73329 8.6281 6.26473 11.1603 8.46093 12.6051C8.82733 12.85 9.21101 13.068 9.60895 13.2574C9.97163 13.4313 10.3852 13.6466 10.7857 13.7268C10.9389 13.7803 11.0979 13.8259 11.2623 13.8707L11.385 13.9047C11.5384 13.9443 11.6938 13.9794 11.8496 14.0153L11.87 14.0187C12.0453 14.0547 12.2216 14.086 12.3987 14.1125C12.4396 14.1158 12.4782 14.125 12.5182 14.1287C12.6932 14.1538 12.868 14.1744 13.0463 14.193L13.0638 14.1935C13.1399 14.2021 13.2176 14.2053 13.3002 14.2091C13.3334 14.211 13.3731 14.2161 13.408 14.217C13.5338 14.224 13.6558 14.2285 13.7818 14.2319C13.8001 14.2296 13.8175 14.2301 13.8349 14.2283C13.9403 14.2318 14.0517 14.2297 14.1577 14.2261C14.1962 14.2272 14.2315 14.2245 14.2713 14.2238C14.345 14.22 14.4197 14.218 14.493 14.2156L14.5277 14.212C14.6782 14.2038 14.8289 14.1899 14.9764 14.1765C15.0129 14.1719 15.0435 14.1672 15.0757 14.1651C15.1959 14.1522 15.3169 14.1366 15.4356 14.1189C15.4875 14.1091 15.5382 14.1033 15.5865 14.0932C15.694 14.0761 15.8052 14.0534 15.9095 14.0346L16.0535 14.0048C16.2036 13.9716 16.3615 13.9501 16.5083 13.8969C24.0568 11.1347 22.647 4.9145 22.647 4.9145C22.3803 7.79992 20.154 10.3613 16.7511 11.2697C16.6006 11.3101 16.4489 11.3461 16.2963 11.3777C16.2476 11.3891 16.2037 11.3967 16.1568 11.4072C16.0485 11.4271 15.9387 11.4502 15.8316 11.466L15.6796 11.4899C15.5591 11.5064 15.4392 11.5259 15.3207 11.5378C15.2837 11.5415 15.2518 11.5481 15.2218 11.5478C15.0689 11.5619 14.9157 11.5774 14.7635 11.5866L14.5315 11.5949L14.3984 11.6012C14.2969 11.6039 14.1953 11.6039 14.0938 11.6012C14.0701 11.6026 14.0464 11.6026 14.0227 11.6012C13.8979 11.596 13.7698 11.595 13.6484 11.5855C13.6094 11.5857 13.5711 11.581 13.5334 11.5793L13.2854 11.5634C13.1108 11.5472 12.9349 11.5227 12.7588 11.5017C12.7166 11.4922 12.6778 11.4866 12.6381 11.4792C10.7533 11.1921 8.93078 10.3711 7.54482 9.06072C6.09718 7.70018 5.16344 5.78579 5.20079 3.78042L4.98489 5.94541ZM8.86397 1.53899C8.72971 3.14766 9.46944 4.63181 10.7381 5.60298C12.0866 6.63588 13.8736 7.0346 15.5379 6.75941C15.6067 6.74916 15.6719 6.73642 15.7429 6.72382L15.8328 6.70399C15.9276 6.68479 16.0248 6.66772 16.1179 6.63922C20.347 5.21736 19.8552 1.93959 19.9093 1.38737C19.7391 3.20476 18.3937 4.37847 16.2688 4.98088C16.0951 5.02894 15.9189 5.06728 15.7409 5.09572C15.5216 5.13508 15.3003 5.16287 15.078 5.17896C14.6554 5.20619 14.2312 5.19225 13.8113 5.13733C11.421 4.81566 9.01594 2.98342 8.99252 0.395434" fill="#133B6D"/>
</svg>
